inDegrees=no
num_controls=7
num_derivatives=13
num_iterations=178
num_multipliers=7
num_parameters=0
num_slacks=7
num_states=26
objective=6.256496
objective_accelerations=0.387104
objective_balance=0.071721
objective_effort=0.423905
objective_height=5.262263
objective_ligament=0.111502
solver_duration=1538.827661
status=Solve_Succeeded
success=true
DataType=double
version=3
OpenSimVersion=4.4-2022-07-23-0e9fedc
endheader
time	/jointset/ground_pelvis/pelvis_tilt/value	/jointset/ground_pelvis/pelvis_tx/value	/jointset/ground_pelvis/pelvis_ty/value	/jointset/hip_r/hip_flexion_r/value	/jointset/hip_r/hip_adduction_r/value	/jointset/hip_r/hip_rotation_r/value	/jointset/back/lumbar_extension/value	/jointset/patellofemoral_r/patellar_flexion_r/value	/jointset/knee_r/knee_flexion_r/value	/jointset/knee_r/knee_adduction_r/value	/jointset/knee_r/knee_rotation_r/value	/jointset/ankle_r/ankle_angle_r/value	/jointset/subtalar_r/subtalar_angle_r/value	/jointset/ground_pelvis/pelvis_tilt/speed	/jointset/ground_pelvis/pelvis_tx/speed	/jointset/ground_pelvis/pelvis_ty/speed	/jointset/hip_r/hip_flexion_r/speed	/jointset/hip_r/hip_adduction_r/speed	/jointset/hip_r/hip_rotation_r/speed	/jointset/back/lumbar_extension/speed	/jointset/patellofemoral_r/patellar_flexion_r/speed	/jointset/knee_r/knee_flexion_r/speed	/jointset/knee_r/knee_adduction_r/speed	/jointset/knee_r/knee_rotation_r/speed	/jointset/ankle_r/ankle_angle_r/speed	/jointset/subtalar_r/subtalar_angle_r/speed	/forceset/tau_hip_flexion_r	/forceset/tau_hip_adduction_r	/forceset/tau_hip_rotation_r	/forceset/tau_knee_flexion_r	/forceset/tau_ankle_angle_r	/forceset/tau_subtalar_angle_r	/forceset/tau_lumbar_extension	lambda_cid13_p0	lambda_cid14_p0	lambda_cid14_p1	lambda_cid14_p2	lambda_cid14_p3	lambda_cid14_p4	lambda_cid14_p5	/jointset/ground_pelvis/pelvis_tilt/accel	/jointset/ground_pelvis/pelvis_tx/accel	/jointset/ground_pelvis/pelvis_ty/accel	/jointset/hip_r/hip_flexion_r/accel	/jointset/hip_r/hip_adduction_r/accel	/jointset/hip_r/hip_rotation_r/accel	/jointset/back/lumbar_extension/accel	/jointset/patellofemoral_r/patellar_flexion_r/accel	/jointset/knee_r/knee_flexion_r/accel	/jointset/knee_r/knee_adduction_r/accel	/jointset/knee_r/knee_rotation_r/accel	/jointset/ankle_r/ankle_angle_r/accel	/jointset/subtalar_r/subtalar_angle_r/accel	gamma_cid13_p0	gamma_cid14_p0	gamma_cid14_p1	gamma_cid14_p2	gamma_cid14_p3	gamma_cid14_p4	gamma_cid14_p5
0.5	-0.1002475698530454	0.0621645101596037	0.867216177025021	0.6729141972103637	-0.2282598528512095	-0.1390573666875249	-0.3108463970166295	0.6725776065699964	0.6725776065700441	0.03831745279557038	0.1745304471782755	0.2714179044860411	0.06156839380399207	-0.2742722701492691	-0.08070246910816553	-0.3113849846038316	1.368949423551488	-0.00932830004276443	0.2402994293877718	-0.6035077655475524	1.615162922322914	1.615162922322896	-0.2799459858336117	-1.918052717008298e-05	0.6081380407959852	0.1653178099445488	-0.07651052904705244	-0.009236400677571198	0.007799321712467736	-0.3201035301077936	0.03193620682905134	-0.01012988762502277	0.1346761123648572	-32.87315695499628	-31.91029709106323	-6.115103610698118	-2.987379319256244	8.225200347222572	-671.0250770352919	55.66905041789354	0.03656049960978224	0.176552323776672	-0.3294172527167745	-0.7403513834988334	-0.07159362072102565	-0.53082868874516	1.192235403956187	-1.150734771179008	-1.150734771179058	0.4176282377718896	0.003916555540878163	-0.586333258256089	-0.1226185620062696	-1.01745757987814e-07	-1.418966008501158e-07	5.190655235086162e-07	-1.186975095677986e-06	2.809532257688505e-08	-1.82821735657102e-07	8.655941429336191e-07
0.51	-0.1029880366028738	0.06136641686352386	0.8640865283767606	0.6865645988269805	-0.2283574538005905	-0.1366796845048352	-0.3168210567559197	0.6886693386359413	0.6886693386359021	0.03554129280484176	0.1745303323510991	0.2774688539751145	0.06321404054123289	-0.2737803703369254	-0.0789079470463729	-0.3144745500275086	1.360940790672355	-0.01019550855866744	0.235264907610302	-0.5913443841790995	1.602954595565051	1.602954595565043	-0.2752357847108422	-1.791449850558957e-05	0.6019639175508004	0.1637733187542761	-0.08200338946980093	-0.007334457707031776	0.008443109041523275	-0.3222470820942388	0.02692733000204317	-0.009499744221798981	0.1396401226548588	-31.97474947547961	-33.64690517979683	-6.258782741065455	-2.835076337609208	8.932107576209898	-674.0211208858569	55.37875282793411	0.06159937629307018	0.1821445405037521	-0.2882324442653144	-0.8596509204972789	-0.09498217278513191	-0.4857501167252741	1.240359223345646	-1.290196450152514	-1.290196450150905	0.5052560525385267	-0.0040881913061277	-0.6461516512894864	-0.1761572813561033	-8.237219424594725e-08	-8.226742152371475e-08	6.506318194494328e-07	-7.294962216922888e-07	-2.173019633138035e-08	-1.169375074205082e-07	7.295165845191523e-07
0.52	-0.1057223654237362	0.0605865172666863	0.8609280828228484	0.7001292077787268	-0.2284638663762868	-0.1343515447788108	-0.3226716887375152	0.7046321244698971	0.7046321244697636	0.03281374282593454	0.1745297662206468	0.283455422273008	0.06484308378980705	-0.2730446843546987	-0.07706372925971061	-0.3171443657341682	1.351790890578153	-0.01109062530498628	0.2303909380537333	-0.5787022140083983	1.58937367592468	1.589373675924683	-0.2702239834677174	-0.0001094411832571269	0.5952618025600201	0.1619971122112726	-0.08749624989254208	-0.005432514736462371	0.009086896370642306	-0.3243906340806936	0.02191845317503798	-0.008869600818544127	0.144604132944866	-31.06148987936217	-35.39073466751913	-6.401180770000753	-2.685885712035443	9.639095027022956	-677.1282067148341	55.152928243716	0.08531773358661013	0.1864914687504478	-0.2454673093133033	-0.9686048265125352	-0.07717526680415987	-0.4987182445650751	1.287993164406023	-1.425253347680765	-1.425253347680796	0.4779482618428389	-0.01464198714222762	-0.6919316073754148	-0.1689616325524552	-5.207832000182921e-08	3.055413638893192e-08	9.867447680889444e-07	1.294848391082205e-07	-1.255830803338002e-07	5.526480763163093e-09	5.344702734488282e-07
0.53	-0.1084482353740076	0.05982534332342459	0.8577450796980329	0.7135968265727822	-0.2285786817695331	-0.132074277614624	-0.3283935453959444	0.7204523825021564	0.7204523825019837	0.03013476990040823	0.1745294180649211	0.2893726843555358	0.06645428016556795	-0.2720933270053901	-0.07515744015616302	-0.3193821487814187	1.341540604012796	-0.01188030887222708	0.225106978238384	-0.5655982762163936	1.574455535691102	1.574455535691107	-0.2655068141783872	1.58158521407139e-05	0.5881152802765539	0.1602006350360482	-0.09253819814284264	-0.004178262634350397	0.009726959477218515	-0.3273643863548708	0.01812659348593731	-0.008194091166054875	0.1492574672201114	-30.14205009412761	-36.74169710780856	-6.444870423255265	-2.564103220770507	10.00947815587335	-680.3054671094608	55.22102848625767	0.1054479750344469	0.1947044898587391	-0.2018032650793597	-1.082070267249756	-0.0808485733741606	-0.5365649211310832	1.332220306114904	-1.55844635200851	-1.558446352008028	0.4783616178682822	0.02263690288778832	-0.7373447526385607	-0.1909687434790261	-2.83942862602433e-08	1.130840004092807e-07	1.214119155833798e-06	7.507785415100649e-07	-2.001396743033697e-07	9.599580264780149e-08	4.008574991656446e-07
0.54	-0.1111635111029203	0.05908363364293866	0.8545419248502145	0.7269561765620182	-0.2287015907328289	-0.1298485160627937	-0.3339822374325527	0.7361167887338192	0.7361167887337449	0.02750492073885743	0.1745296279505033	0.2952162147724682	0.06804631617288077	-0.2709258400787687	-0.07317087670455431	-0.3211747103347344	1.330137129619359	-0.01270933930700723	0.2200898155785409	-0.5520692896436868	1.558203315825033	1.558203315825042	-0.2603992306734094	2.167047795908231e-06	0.5805154694408302	0.1581650385219567	-0.09758014639320459	-0.002924010532335637	0.0103670225855788	-0.3303381386290688	0.0143347337968114	-0.007518581513689801	0.1539108014953146	-29.21857224358318	-38.09897153218456	-6.488404099167983	-2.443784989499467	10.38959073047115	-683.5781403410898	55.29532932525831	0.1285436490494028	0.2025463383625452	-0.1564230105263229	-1.199242392128785	-0.08504464031181638	-0.445358813463855	1.373002920546585	-1.692069274178867	-1.69206927417888	0.5560311049722539	-0.04242315509067634	-0.7825893178270645	-0.216785500325916	-1.202326754273557e-08	1.620996499104911e-07	1.321187050673921e-06	1.109098996321894e-06	-2.422833516408491e-07	1.510667703292541e-07	3.352137443065321e-07
0.55	-0.1138661264801218	0.05836211445046472	0.8513230790324811	0.7401960483633913	-0.2288325836608326	-0.1276732288017106	-0.3394335601962002	0.7516121694942777	0.7516121694943119	0.02492627477614429	0.1745298150379486	0.3009816109779852	0.06961741173254805	-0.2695623163982798	-0.07112613550121005	-0.3225180099887948	1.317657664719037	-0.01348716231818818	0.2149733701725522	-0.5381376710604471	1.540658814671602	1.540658814671622	-0.255309279759816	3.160361426874826e-05	0.5724893845236932	0.156025903164627	-0.1025849095455655	-0.001536914057215502	0.01091159199425566	-0.3331390561104849	0.01030506155781851	-0.006848563003884609	0.1584954841220605	-28.29179885493035	-39.53499091850132	-6.548756141138824	-2.320049060858794	10.87693392611508	-686.8328850691937	55.3264422033116	0.1455089636817651	0.206408900182161	-0.1117807382449686	-1.299212490166018	-0.07351017613253509	-0.543857624466583	1.411880131337913	-1.817743157171662	-1.817743157169752	0.4888295713918873	0.02534693809430361	-0.8238149516978062	-0.2163326772712607	-2.87230290031784e-09	1.865978943652089e-07	1.367262829755763e-06	1.280201214465159e-06	-2.629399950204436e-07	1.785259019881508e-07	3.165524767771458e-07
